<?xml version="1.0" encoding="UTF-8"?>
<svg version="1.1" xmlns="http://www.w3.org/2000/svg" width="2159" height="734">
<path d="M0 0 C5.27034469 -0.02356493 10.54070361 -0.04018882 15.81108078 -0.05455152 C19.21760298 -0.06423055 22.6239388 -0.07849536 26.03041697 -0.10007077 C38.54257862 -0.17845097 50.97265189 -0.08207306 63.45060492 0.92536479 C64.38993604 1.0006793 65.32926717 1.0759938 66.29706287 1.15359056 C114.42582243 5.55923208 160.09676785 32.6031269 191.13700628 69.09945232 C223.57445764 109.13731068 236.97449244 158.10586181 231.6299262 209.23226482 C227.65107674 241.27320133 215.50944552 270.91921992 195.40360785 296.06136638 C194.96178167 296.62033611 194.5199555 297.17930583 194.06474066 297.75521404 C183.12381937 311.50867926 170.49007129 324.52696504 156.40360785 335.06136638 C155.36462347 335.84382732 154.3256391 336.62628825 153.25517035 337.43246013 C112.66037284 367.46941989 64.23848329 386.37629013 18.08762884 405.92434245 C15.61519586 406.97173197 13.14329177 408.02035504 10.67167425 409.06966716 C3.58670825 412.07732969 -3.50101958 415.07831716 -10.59639215 418.06136638 C-8.34104098 422.17362336 -5.55006338 425.48662873 -2.34639215 428.87386638 C-1.35090332 429.9422276 -0.35611038 431.01123769 0.63798285 432.08089763 C1.11686956 432.59475017 1.59575628 433.10860271 2.08915472 433.63802654 C3.73031521 435.41513754 5.32246129 437.23076709 6.90360785 439.06136638 C10.31105703 442.99303852 13.83490458 446.81497882 17.35893011 450.64168864 C19.89100901 453.39610066 22.39396053 456.16879137 24.84110785 458.99886638 C27.95324908 462.59095229 31.17232871 466.0768863 34.40360785 469.56136638 C38.18992473 473.6443766 41.92127833 477.75906355 45.5637641 481.97152263 C47.97030905 484.70507157 50.43662229 487.38252295 52.90360785 490.06136638 C55.9228728 493.33991742 58.92562923 496.62717595 61.84110785 499.99886638 C64.95324908 503.59095229 68.17232871 507.0768863 71.40360785 510.56136638 C75.19242721 514.64707517 78.92532648 518.76529911 82.5715766 522.97933513 C85.40225045 526.19628431 88.311278 529.34107318 91.21195745 532.49471599 C95.64598593 537.31741465 100.0279719 542.18565775 104.40360785 547.06136638 C105.16673285 547.90699138 105.92985785 548.75261638 106.71610785 549.62386638 C110.09800871 553.37137815 113.47015271 557.1237657 116.77860785 560.93636638 C120.23280088 564.90467187 123.79491343 568.77149197 127.35844183 572.64120036 C129.89071484 575.3957473 132.39380987 578.16861713 134.84110785 580.99886638 C137.95324908 584.59095229 141.17232871 588.0768863 144.40360785 591.56136638 C148.18992473 595.6443766 151.92127833 599.75906355 155.5637641 603.97152263 C157.9703094 606.70507197 160.43663981 609.38250644 162.90360785 612.06136638 C166.50376108 615.97115819 170.04778449 619.92003174 173.52860785 623.93636638 C175.9491086 626.67960056 178.42561427 629.37021206 180.90360785 632.06136638 C184.50373541 635.97118233 188.0477839 639.92003106 191.52860785 643.93636638 C194.4228012 647.21645219 197.39579676 650.42404695 200.35893011 653.64168864 C202.89100901 656.39610066 205.39396053 659.16879137 207.84110785 661.99886638 C211.46572874 666.18246495 215.23745852 670.22571248 219.00101995 674.28377849 C222.23036655 677.77207974 225.38859821 681.30870818 228.49735785 684.90511638 C231.08645876 687.83377151 233.74560125 690.69530301 236.40360785 693.56136638 C240.2315756 697.69007366 244.01219478 701.84622962 247.6965766 706.10433513 C249.73994215 708.44695788 251.82041644 710.7541006 253.90360785 713.06136638 C257.33649886 716.86458639 260.73004092 720.69848961 264.09110785 724.56527263 C264.83910101 725.41789579 265.60159163 726.25935016 266.40360785 727.06136638 C266.44441567 729.06095002 266.44615141 731.06181892 266.40360785 733.06136638 C238.63974256 733.22489332 210.87594946 733.34833039 183.11169958 733.42405158 C170.2202318 733.46014491 157.32906325 733.50935263 144.43778753 733.58944255 C133.20164573 733.6592163 121.96572064 733.70437492 110.72936821 733.71998584 C104.7797645 733.72911114 98.83078077 733.75055443 92.88137579 733.80147678 C87.28014593 733.84903007 81.67979075 733.86363891 76.0783782 733.85312015 C74.02406703 733.85504413 71.96972628 733.86894501 69.91558981 733.8958047 C52.4489614 734.11297189 52.4489614 734.11297189 47.31657171 729.71457988 C45.73965979 727.88167983 45.73965979 727.88167983 44.40360785 726.06136638 C43.36137591 724.96858778 42.3095068 723.88482336 41.2434516 722.81527263 C40.27138838 721.75568617 39.30395227 720.69183687 38.34110785 719.62386638 C37.5648908 718.77320598 37.5648908 718.77320598 36.77299261 717.90536052 C33.54882647 714.36165965 30.37710622 710.77521658 27.2434516 707.15121013 C24.83690629 704.41766079 22.37057588 701.74022632 19.90360785 699.06136638 C16.30345461 695.15157457 12.7594312 691.20270102 9.27860785 687.18636638 C6.8581071 684.4431322 4.38160142 681.7525207 1.90360785 679.06136638 C-1.69651972 675.15155043 -5.24056821 671.2027017 -8.72139215 667.18636638 C-11.1418929 664.4431322 -13.61839858 661.7525207 -16.09639215 659.06136638 C-19.69651972 655.15155043 -23.24056821 651.2027017 -26.72139215 647.18636638 C-29.1418929 644.4431322 -31.61839858 641.7525207 -34.09639215 639.06136638 C-37.69651972 635.15155043 -41.24056821 631.2027017 -44.72139215 627.18636638 C-47.1418929 624.4431322 -49.61839858 621.7525207 -52.09639215 619.06136638 C-55.69651972 615.15155043 -59.24056821 611.2027017 -62.72139215 607.18636638 C-65.1418929 604.4431322 -67.61839858 601.7525207 -70.09639215 599.06136638 C-73.13527233 595.76107715 -76.15795261 592.45187355 -79.09639215 589.06136638 C-81.99724777 585.71636062 -84.9746361 582.44531298 -87.97139215 579.18636638 C-94.04301625 572.58352705 -100.0898771 565.95986476 -105.97139215 559.18636638 C-109.42490777 555.21883914 -112.98643155 551.35288998 -116.54902887 547.48372966 C-119.66224259 544.09692078 -122.70883754 540.66239094 -125.72139215 537.18636638 C-128.1418929 534.4431322 -130.61839858 531.7525207 -133.09639215 529.06136638 C-136.13527233 525.76107715 -139.15795261 522.45187355 -142.09639215 519.06136638 C-143.26165993 517.72681031 -144.42852769 516.39365069 -145.59639215 515.06136638 C-146.23907038 514.32490886 -146.23907038 514.32490886 -146.894732 513.57357341 C-148.34868687 511.91538076 -149.81513474 510.26895219 -151.28389215 508.62386638 C-151.74795465 508.09083904 -152.21201715 507.55781169 -152.69014215 507.008632 C-154.55609886 504.93564552 -156.18056391 503.25894223 -158.7174859 502.05355388 C-161.32175416 502.06438244 -162.07943966 502.84748565 -163.97139215 504.62386638 C-164.66361872 505.27355388 -165.35584528 505.92324138 -166.0690484 506.59261638 C-166.90307184 507.40730388 -167.73709528 508.22199138 -168.59639215 509.06136638 C-169.11056696 509.55121013 -169.62474176 510.04105388 -170.15449762 510.54574138 C-178.80758286 518.79583364 -186.53667459 527.41420099 -193.59639215 537.06136638 C-194.3646734 538.10808513 -195.13295465 539.15480388 -195.92451715 540.23324138 C-224.93563914 581.01111214 -238.38314024 628.07348418 -238.85675287 677.89288455 C-238.87813685 680.12471598 -238.9051104 682.35642244 -238.93342829 684.58817607 C-239.00252716 690.11536771 -239.06295488 695.64264568 -239.12245417 701.16994792 C-239.17331292 705.87515324 -239.22801884 710.58028019 -239.28827143 715.28537494 C-239.31484879 717.48629135 -239.33563867 719.68721547 -239.35627985 721.88819438 C-239.3728674 723.22416106 -239.38973784 724.56012426 -239.40693903 725.89608318 C-239.41946711 727.0656808 -239.43199518 728.23527843 -239.4449029 729.44031841 C-239.59639215 732.06136638 -239.59639215 732.06136638 -240.59639215 733.06136638 C-242.66969613 733.1603954 -244.74643264 733.18768964 -246.82210016 733.18835002 C-247.47970095 733.18991001 -248.13730174 733.19147 -248.81482983 733.19307727 C-251.03435729 733.19708904 -253.25381722 733.19389696 -255.47334528 733.19076091 C-257.0580574 733.19211487 -258.64276921 733.19389478 -260.22748041 733.19607097 C-264.54347419 733.2006459 -268.85944418 733.1988555 -273.1754384 733.19569188 C-277.68200862 733.19316859 -282.18857674 733.19550573 -286.69514704 733.19707805 C-294.26460878 733.19889983 -301.83406079 733.1964932 -309.40352106 733.19173747 C-318.16777642 733.18629484 -326.93200852 733.18805749 -335.69626331 733.19356388 C-343.20706698 733.19809475 -350.71786362 733.19874568 -358.22866821 733.19612521 C-362.72067728 733.19456229 -367.2126754 733.19436906 -371.70468378 733.1976617 C-375.92678214 733.20054004 -380.14885037 733.1985654 -384.37094545 733.19276744 C-385.92503099 733.19143965 -387.47911905 733.19183429 -389.0332036 733.19403011 C-391.14573192 733.19674086 -393.25816217 733.19336144 -395.37068415 733.18835002 C-396.5557329 733.187973 -397.74078165 733.18759597 -398.96174097 733.18720752 C-401.59639215 733.06136638 -401.59639215 733.06136638 -402.59639215 732.06136638 C-402.75584043 730.1523477 -402.84795817 728.23765344 -402.9127984 726.32308513 C-402.95485407 725.12087322 -402.99690973 723.9186613 -403.04023981 722.68001872 C-403.07939508 721.38273845 -403.11855036 720.08545818 -403.15889215 718.74886638 C-403.17973871 718.08800029 -403.20058527 717.4271342 -403.22206354 716.74624187 C-403.57497969 705.51384306 -403.81060561 694.29821386 -403.59639215 683.06136638 C-403.57850641 682.08119548 -403.56062067 681.10102458 -403.54219294 680.09115154 C-402.27656565 620.18171409 -390.38509697 563.34305842 -362.58955622 509.97396404 C-361.56603007 508.00289622 -360.56140932 506.02287003 -359.55732965 504.04183513 C-347.57449132 480.64242907 -332.64651779 458.84385588 -316.59639215 438.06136638 C-316.17825251 437.51850993 -315.76011286 436.97565349 -315.32930231 436.41634685 C-306.48472983 424.95809188 -297.2090871 413.88374878 -287.59639215 403.06136638 C-286.88869684 402.26085857 -286.18100153 401.46035075 -285.4518609 400.63558513 C-281.26447092 395.93458002 -276.97710743 391.40254374 -272.4909234 386.98714763 C-270.62828516 385.09378546 -268.8880466 383.1392257 -267.15889215 381.12386638 C-261.5020583 374.56708168 -255.33110974 368.63492925 -248.76045465 363.00667888 C-246.10662831 360.62110935 -243.60160892 358.10039694 -241.09639215 355.56136638 C-237.39336731 351.81348319 -233.61992482 348.21712597 -229.61201715 344.79574138 C-227.29524595 342.80224057 -225.04219231 340.7458225 -222.78389215 338.68636638 C-217.53501989 333.95521293 -212.09077139 329.50259852 -206.59639215 325.06136638 C-205.36519128 324.05053871 -204.13476597 323.03876589 -202.9049859 322.02621013 C-182.07779064 304.91631297 -160.1638627 289.22560984 -137.72139215 274.31136638 C-136.87844599 273.7506544 -136.03549982 273.18994243 -135.16700983 272.61223918 C-111.04540722 256.59044667 -86.52469009 241.96470605 -60.59639215 229.06136638 C-59.2523028 228.38049968 -59.2523028 228.38049968 -57.88106012 227.6858781 C-18.78278102 207.89386815 23.33541232 193.95569312 65.40360785 182.06136638 C67.73733328 181.39606329 70.07049578 180.7288188 72.40360785 180.06136638 C44.37193783 167.71581223 13.87808267 160.67452343 -16.15889215 155.31136638 C-17.69513239 155.03147868 -17.69513239 155.03147868 -19.26240778 154.74593669 C-23.03095861 154.1079176 -26.80945221 153.57562945 -30.59639215 153.06136638 C-31.47923946 152.93993896 -32.36208677 152.81851154 -33.27168703 152.6934045 C-55.5326424 149.74643181 -77.6139132 149.64559286 -100.03279352 149.72431618 C-105.30357989 149.73963253 -110.57436668 149.73774015 -115.84517145 149.738231 C-125.98356453 149.74190988 -136.12186073 149.76184599 -146.26021934 149.78751481 C-154.41310936 149.80757732 -162.56597814 149.81949985 -170.71888971 149.8261674 C-171.87744294 149.82712151 -173.03599616 149.82807562 -174.22965705 149.82905865 C-175.38924544 149.83001012 -176.54883384 149.8309616 -177.74356127 149.8319419 C-220.76433098 149.86735924 -263.78408546 149.97865217 -306.80315113 150.37878209 C-309.19827748 150.40099575 -311.59340759 150.42275238 -313.98853922 150.44438869 C-327.68925766 150.56863324 -341.38979045 150.69795699 -355.08978009 150.8876102 C-360.80783648 150.96647551 -366.52598129 151.03223102 -372.24424982 151.09356433 C-375.61067965 151.13415598 -378.9765572 151.19118777 -382.34273005 151.24885112 C-384.32457206 151.27024879 -386.30642414 151.29074269 -388.28828669 151.31014568 C-389.61166638 151.34034864 -389.61166638 151.34034864 -390.96178102 151.37116176 C-391.77127136 151.37545318 -392.5807617 151.3797446 -393.41478205 151.38416606 C-394.10735668 151.39430578 -394.79993132 151.40444551 -395.51349306 151.41489249 C-398.49504253 150.90884033 -400.24843112 149.96763546 -402.59639215 148.06136638 C-403.21442461 145.4148801 -403.21442461 145.4148801 -403.20439386 142.16460735 C-403.21271235 140.93346202 -403.22103083 139.7023167 -403.22960138 138.43386394 C-403.21350038 137.06734221 -403.19691297 135.70082613 -403.17988825 134.3343156 C-403.18011491 132.89708834 -403.18252821 131.45985999 -403.18696833 130.02263957 C-403.19268216 126.1176204 -403.16736023 122.21334572 -403.13629341 118.30846864 C-403.10878578 114.22768383 -403.10875538 110.14689864 -403.10557795 106.06603557 C-403.09637055 99.21457563 -403.06882361 92.36339463 -403.02852106 85.51204997 C-402.97166591 75.83770316 -402.94937079 66.16349664 -402.93323636 56.48900896 C-402.92079531 49.7997862 -402.90010886 43.11058488 -402.87785625 36.42138845 C-402.87248856 34.79613075 -402.86735254 33.17087226 -402.86244392 31.54561311 C-402.84817041 26.91509645 -402.82878757 22.28466061 -402.80096674 17.65420467 C-402.79322314 16.24848061 -402.78717093 14.84274612 -402.78288889 13.43700725 C-402.77670455 11.52603666 -402.76370302 9.61509167 -402.7502923 7.70415813 C-402.74472 6.63232217 -402.7391477 5.56048621 -402.73340654 4.45617038 C-402.59639215 2.06136638 -402.59639215 2.06136638 -401.59639215 1.06136638 C-399.60337406 0.95851237 -397.60665209 0.92735431 -395.61098719 0.92270118 C-394.30100748 0.91722674 -392.99102777 0.91175229 -391.6413517 0.90611196 C-390.1680726 0.90503544 -388.69479344 0.90405081 -387.22151423 0.903148 C-385.67067715 0.89858604 -384.1198413 0.89358656 -382.56900692 0.88818443 C-378.28434984 0.87454242 -373.99970074 0.86716685 -369.71502757 0.86075777 C-365.09888901 0.85277595 -360.48276716 0.8390666 -355.86664057 0.82604533 C-346.79643981 0.80136462 -337.7262349 0.78199163 -328.65601814 0.76429259 C-318.0397043 0.74334426 -307.42340636 0.71688015 -296.80710584 0.69012112 C-277.78716908 0.64234115 -258.76722469 0.59914255 -239.74727106 0.55868083 C-221.42792815 0.51970176 -203.10859333 0.4782926 -184.78926325 0.43368083 C-183.67030989 0.43095656 -182.55135653 0.42823229 -181.3984955 0.42542546 C-176.89616265 0.41445644 -172.39382983 0.40347742 -167.89149705 0.39248332 C-148.17026151 0.34437813 -128.44902159 0.29810473 -108.72778058 0.25230691 C-106.6263155 0.24742522 -104.52485043 0.24253601 -102.42338538 0.2376391 C-95.26201992 0.22095504 -88.10065405 0.2044632 -80.93928766 0.18818218 C-79.94990861 0.18592601 -78.96052956 0.18366984 -77.94116932 0.18134531 C-67.37301346 0.15737815 -56.80485897 0.1353131 -46.23668909 0.11851722 C-44.8706346 0.11632714 -44.8706346 0.11632714 -43.47698304 0.11409282 C-36.21022376 0.10247708 -36.21022376 0.10247708 -32.65772575 0.09705237 C-21.77171895 0.080147 -10.88590822 0.04927657 0 0 Z " fill="#2573CC" transform="translate(1179.5963921546936,0.9386336207389832)"/>
<path d="M0 0 C1.90134956 -0.01052147 1.90134956 -0.01052147 3.84111023 -0.02125549 C7.90843594 -0.03865696 11.97561383 -0.04568939 16.04296875 -0.046875 C16.73607147 -0.04731686 17.42917419 -0.04775871 18.14328003 -0.04821396 C39.31064499 -0.05528994 60.23145606 0.23225019 81.23046875 3.203125 C82.47908691 3.37473145 83.72770508 3.54633789 85.01416016 3.72314453 C143.11958461 11.94623419 198.22342436 32.37594613 244.23046875 69.203125 C245.266875 70.01394531 246.30328125 70.82476562 247.37109375 71.66015625 C255.02778566 77.8636802 261.99767757 84.76307258 268.98046875 91.703125 C269.47065491 92.18795349 269.96084106 92.67278198 270.46588135 93.17230225 C277.18160995 99.832308 283.39238411 106.75682416 289.23046875 114.203125 C289.77380859 114.89245117 290.31714844 115.58177734 290.87695312 116.29199219 C302.37754002 131.05336966 312.44480521 146.68694777 321.23046875 163.203125 C321.65827637 164.00282715 322.08608398 164.8025293 322.52685547 165.62646484 C354.62569195 226.15999262 365.94575813 295.5292689 365.62158203 363.43530273 C365.60447525 367.04666612 365.61470559 370.65736621 365.63190365 374.26870728 C365.95534217 454.62774103 348.28411279 539.27326225 300.23046875 605.203125 C299.73901367 605.88391113 299.24755859 606.56469727 298.74121094 607.26611328 C293.01620176 615.17251663 287.12745874 622.71433236 280.4453125 629.83984375 C278.55744001 631.85424032 276.76060589 633.90698375 274.98046875 636.015625 C266.2692514 646.00065243 256.67736508 655.06493504 246.23046875 663.203125 C245.14060816 664.08169973 244.05213183 664.96199362 242.96484375 665.84375 C234.7166534 672.49329066 226.19031566 678.55055877 217.23046875 684.203125 C216.59866699 684.60354004 215.96686523 685.00395508 215.31591797 685.41650391 C174.5905011 710.95861305 127.60815378 724.87248605 80.23046875 731.203125 C79.121875 731.35555664 78.01328125 731.50798828 76.87109375 731.66503906 C36.85916579 736.90415746 -5.81082614 736.7836122 -45.76953125 731.203125 C-47.61490479 730.95369141 -47.61490479 730.95369141 -49.49755859 730.69921875 C-85.5141356 725.67948676 -121.0404067 716.2406476 -153.76953125 700.203125 C-154.67767578 699.76129883 -155.58582031 699.31947266 -156.52148438 698.86425781 C-176.39589979 689.1036512 -194.72745823 677.33720485 -211.76953125 663.203125 C-212.31561035 662.75855957 -212.86168945 662.31399414 -213.42431641 661.85595703 C-227.86512525 650.08049689 -241.35517743 636.94491038 -252.76953125 622.203125 C-253.68008961 621.10126151 -254.59440988 620.00250002 -255.51171875 618.90625 C-268.21527045 603.61431829 -278.50304359 586.75508707 -287.76953125 569.203125 C-288.28459229 568.23874512 -288.28459229 568.23874512 -288.81005859 567.25488281 C-307.13193021 532.75300475 -317.89476165 495.25688567 -324.56848145 456.93295288 C-324.81649593 455.50963571 -325.06786334 454.08689597 -325.3236084 452.66494751 C-330.08909407 425.88182046 -331.28791434 398.69136854 -331.16064453 371.54370117 C-331.14353802 367.87180994 -331.15376622 364.20057105 -331.17096615 360.52870178 C-331.54185521 266.86268656 -306.7260489 172.37940152 -229.01953125 86.328125 C-225.40367341 82.78956578 -221.63687852 79.46394731 -217.76953125 76.203125 C-217.24810547 75.75727051 -216.72667969 75.31141602 -216.18945312 74.85205078 C-156.72682705 24.20916059 -77.42964596 0.28864147 0 0 Z M-150.34375 185.0859375 C-152.5546135 187.74532448 -154.67704767 190.44965835 -156.76953125 193.203125 C-157.1862207 193.74340332 -157.60291016 194.28368164 -158.03222656 194.84033203 C-186.06790514 231.31125307 -203.84725065 274.00521239 -211.76953125 319.203125 C-212.01727295 320.5634082 -212.01727295 320.5634082 -212.27001953 321.95117188 C-217.48140242 351.80749161 -217.17459953 385.40609012 -211.76953125 415.203125 C-211.60324219 416.16621582 -211.43695312 417.12930664 -211.265625 418.12158203 C-201.86126214 471.47392575 -177.38494584 521.18196462 -139.76953125 560.203125 C-139.23537598 560.75919434 -138.7012207 561.31526367 -138.15087891 561.88818359 C-131.09238286 569.19839421 -123.87183856 576.04009174 -115.76953125 582.203125 C-115.12918945 582.69280762 -114.48884766 583.18249023 -113.82910156 583.68701172 C-102.99200525 591.91869989 -91.87932529 599.00111911 -79.76953125 605.203125 C-79.02654785 605.58952148 -78.28356445 605.97591797 -77.51806641 606.37402344 C-28.65464901 631.5604814 27.84371516 635.66936706 80.18774414 619.60473633 C105.92193676 611.27965018 130.34425187 598.42259288 151.23046875 581.203125 C151.77058594 580.76452148 152.31070312 580.32591797 152.8671875 579.87402344 C167.34135003 568.07370096 180.85977719 555.01369295 191.94335938 539.94775391 C193.28676539 538.12681699 194.65522035 536.32671799 196.02734375 534.52734375 C202.40132944 526.09975019 208.08337043 517.42909448 213.23046875 508.203125 C213.69066406 507.38376465 214.15085937 506.5644043 214.625 505.72021484 C229.46716356 479.03662857 239.14072413 450.74403553 245.04296875 420.828125 C245.23802002 419.84392578 245.43307129 418.85972656 245.6340332 417.84570312 C248.73606516 401.15192727 249.61002056 384.52661873 249.54296875 367.578125 C249.54114594 366.61612183 249.53932312 365.65411865 249.53744507 364.66296387 C249.48968206 349.64826511 248.90075517 335.01344532 246.23046875 320.203125 C246.0588623 319.22649902 245.88725586 318.24987305 245.71044922 317.24365234 C235.99215106 263.37179938 212.31896241 213.71504415 174.23046875 174.203125 C173.69631348 173.64705566 173.1621582 173.09098633 172.61181641 172.51806641 C165.55098627 165.20543847 158.31097319 158.39890052 150.23046875 152.203125 C149.69260742 151.78353516 149.15474609 151.36394531 148.60058594 150.93164062 C138.38053374 142.98979632 127.57739425 136.40721693 116.23046875 130.203125 C115.56998535 129.83590332 114.90950195 129.46868164 114.22900391 129.09033203 C26.93430182 80.95502492 -75.10407401 109.20471394 -150.34375 185.0859375 Z " fill="#2573CC" transform="translate(1793.76953125,-0.203125)"/>
<path d="M0 0 C1.90134956 -0.01052147 1.90134956 -0.01052147 3.84111023 -0.02125549 C7.90843594 -0.03865696 11.97561383 -0.04568939 16.04296875 -0.046875 C16.73607147 -0.04731686 17.42917419 -0.04775871 18.14328003 -0.04821396 C39.31064499 -0.05528994 60.23145606 0.23225019 81.23046875 3.203125 C82.47908691 3.37473145 83.72770508 3.54633789 85.01416016 3.72314453 C142.83961828 11.90661331 198.55381582 32.20216338 244.23046875 69.203125 C245.00076416 69.81897461 245.00076416 69.81897461 245.78662109 70.44726562 C254.19153645 77.20858771 261.89927376 84.66601685 269.54296875 92.265625 C270.46198975 93.17538086 271.38101074 94.08513672 272.32788086 95.02246094 C278.38532493 101.10780437 283.92681258 107.45295813 289.23046875 114.203125 C289.77453369 114.89317627 290.31859863 115.58322754 290.87915039 116.29418945 C331.65542266 168.64916048 353.44561684 231.92502977 361.97332764 297.24804688 C362.21810358 299.10911099 362.47423026 300.96867178 362.73095703 302.828125 C368.38008583 345.45071419 368.13746969 392.63729905 362.23046875 435.203125 C362.05143005 436.54211116 361.87272938 437.88114256 361.69433594 439.22021484 C352.44280751 507.71509544 328.59502877 578.49535957 280.4453125 629.83984375 C278.55744001 631.85424032 276.76060589 633.90698375 274.98046875 636.015625 C266.2692514 646.00065243 256.67736508 655.06493504 246.23046875 663.203125 C245.14060816 664.08169973 244.05213183 664.96199362 242.96484375 665.84375 C196.45137113 703.34610312 138.96225556 723.35534314 80.23046875 731.203125 C79.121875 731.35555664 78.01328125 731.50798828 76.87109375 731.66503906 C36.85916579 736.90415746 -5.81082614 736.7836122 -45.76953125 731.203125 C-47.61490479 730.95369141 -47.61490479 730.95369141 -49.49755859 730.69921875 C-85.5141356 725.67948676 -121.0404067 716.2406476 -153.76953125 700.203125 C-154.67767578 699.76129883 -155.58582031 699.31947266 -156.52148438 698.86425781 C-175.91138826 689.34160167 -194.05477456 677.90964918 -210.76953125 664.203125 C-211.61378662 663.51114014 -211.61378662 663.51114014 -212.47509766 662.80517578 C-227.18069475 650.65322113 -241.07916877 637.30137912 -252.76953125 622.203125 C-253.68008961 621.10126151 -254.59440988 620.00250002 -255.51171875 618.90625 C-267.70656186 604.22507966 -277.84570607 588.05300014 -286.76953125 571.203125 C-287.09727539 570.58614746 -287.42501953 569.96916992 -287.76269531 569.33349609 C-319.73263328 508.58426441 -331.19866781 440.28369018 -331.08520508 372.22265625 C-331.08059271 369.22380495 -331.08744751 366.2253612 -331.10571289 363.2265625 C-331.67109759 269.35248226 -307.93143122 174.83744616 -229.01953125 86.328125 C-225.40367341 82.78956578 -221.63687852 79.46394731 -217.76953125 76.203125 C-217.24810547 75.75727051 -216.72667969 75.31141602 -216.18945312 74.85205078 C-156.72682705 24.20916059 -77.42964596 0.28864147 0 0 Z M-150.34375 185.0859375 C-152.55451933 187.7452112 -154.67647446 190.45030031 -156.76953125 193.203125 C-157.17558594 193.72745117 -157.58164063 194.25177734 -158 194.79199219 C-185.39272143 230.26680034 -202.82221079 271.5672597 -211.01953125 315.515625 C-211.17075439 316.32539795 -211.32197754 317.1351709 -211.4777832 317.96948242 C-214.32291995 334.23543925 -215.14378658 350.28050485 -215.08203125 366.765625 C-215.08020844 367.77747864 -215.07838562 368.78933228 -215.07650757 369.83184814 C-215.03008218 385.15585581 -214.51100045 400.08996654 -211.76953125 415.203125 C-211.60324219 416.16621582 -211.43695313 417.12930664 -211.265625 418.12158203 C-201.86126214 471.47392575 -177.38494584 521.18196462 -139.76953125 560.203125 C-139.23537598 560.75919434 -138.7012207 561.31526367 -138.15087891 561.88818359 C-131.09004877 569.20081153 -123.85003569 576.00734948 -115.76953125 582.203125 C-115.23166992 582.62271484 -114.69380859 583.04230469 -114.13964844 583.47460938 C-70.01316165 617.76461896 -13.89303078 634.2375454 41.6875 627.94921875 C81.56423367 622.88381503 120.16663573 606.82862536 151.23046875 581.203125 C151.77590332 580.7592041 152.32133789 580.3152832 152.88330078 579.85791016 C166.60616874 568.64161041 179.41210238 556.26494846 190.23046875 542.203125 C191.00261719 541.24792969 191.77476562 540.29273438 192.5703125 539.30859375 C221.3262948 503.19326053 238.29303305 459.37570506 246.23046875 414.203125 C246.39562988 413.28708496 246.56079102 412.37104492 246.73095703 411.42724609 C251.77694428 382.1062509 251.50591915 349.46257427 246.23046875 320.203125 C246.0588623 319.22649902 245.88725586 318.24987305 245.71044922 317.24365234 C238.37891778 276.60246424 223.36998151 237.85613569 199.23046875 204.203125 C198.83408203 203.64383301 198.43769531 203.08454102 198.02929688 202.50830078 C184.70327838 183.79529127 168.59051182 166.06366456 150.23046875 152.203125 C149.6984082 151.78933594 149.16634766 151.37554687 148.61816406 150.94921875 C138.39200883 143.00004879 127.58573038 136.41177482 116.23046875 130.203125 C115.56998535 129.83590332 114.90950195 129.46868164 114.22900391 129.09033203 C26.93430182 80.95502492 -75.10407401 109.20471394 -150.34375 185.0859375 Z " fill="#2573CC" transform="translate(330.76953125,-0.203125)"/>
<path d="M0 0 C-1.84390359 3.15195253 -3.7020206 6.29530773 -5.5625 9.4375 C-6.07619141 10.31599609 -6.58988281 11.19449219 -7.11914062 12.09960938 C-15.30720441 25.88200246 -24.20823455 37.5544989 -40.01171875 42.6484375 C-48.40394911 44.13232892 -56.11125255 42.91540666 -64 40 C-65.43085937 39.47792969 -65.43085937 39.47792969 -66.890625 38.9453125 C-68.75033799 38.26408074 -70.60631092 37.57248417 -72.45703125 36.8671875 C-77.69365995 35.08142472 -82.83093166 34.7363165 -88.3125 34.4375 C-89.42334961 34.37272461 -89.42334961 34.37272461 -90.55664062 34.30664062 C-92.37091464 34.20129568 -94.1854355 34.10021684 -96 34 C-92.74948101 30.36465886 -89.043295 28.07211554 -84.8125 25.75 C-84.10544922 25.36013916 -83.39839844 24.97027832 -82.66992188 24.56860352 C-59.96906611 12.20385011 -36.47194206 4.47694895 -11 0 C-9.70191406 -0.22816406 -8.40382813 -0.45632812 -7.06640625 -0.69140625 C-4.23068929 -0.97678413 -2.66975868 -0.76665002 0 0 Z " fill="#2573CC" transform="translate(910,176)"/>
</svg>
